inDegrees=no
num_controls=7
num_derivatives=13
num_iterations=117
num_multipliers=7
num_parameters=0
num_slacks=7
num_states=26
objective=0.453557
objective_accelerations=0.047971
objective_balance=0.000957
objective_effort=0.037753
objective_height=0.360912
objective_ligament=0.005964
solver_duration=1329.847803
status=Solve_Succeeded
success=true
DataType=double
version=3
OpenSimVersion=4.5
endheader
time	/jointset/ground_pelvis/pelvis_tilt/value	/jointset/ground_pelvis/pelvis_tx/value	/jointset/ground_pelvis/pelvis_ty/value	/jointset/hip_r/hip_flexion_r/value	/jointset/hip_r/hip_adduction_r/value	/jointset/hip_r/hip_rotation_r/value	/jointset/back/lumbar_extension/value	/jointset/patellofemoral_r/patellar_flexion_r/value	/jointset/knee_r/knee_flexion_r/value	/jointset/knee_r/knee_adduction_r/value	/jointset/knee_r/knee_rotation_r/value	/jointset/ankle_r/ankle_angle_r/value	/jointset/subtalar_r/subtalar_angle_r/value	/jointset/ground_pelvis/pelvis_tilt/speed	/jointset/ground_pelvis/pelvis_tx/speed	/jointset/ground_pelvis/pelvis_ty/speed	/jointset/hip_r/hip_flexion_r/speed	/jointset/hip_r/hip_adduction_r/speed	/jointset/hip_r/hip_rotation_r/speed	/jointset/back/lumbar_extension/speed	/jointset/patellofemoral_r/patellar_flexion_r/speed	/jointset/knee_r/knee_flexion_r/speed	/jointset/knee_r/knee_adduction_r/speed	/jointset/knee_r/knee_rotation_r/speed	/jointset/ankle_r/ankle_angle_r/speed	/jointset/subtalar_r/subtalar_angle_r/speed	/forceset/tau_hip_flexion_r	/forceset/tau_hip_adduction_r	/forceset/tau_hip_rotation_r	/forceset/tau_knee_flexion_r	/forceset/tau_ankle_angle_r	/forceset/tau_subtalar_angle_r	/forceset/tau_lumbar_extension	lambda_cid13_p0	lambda_cid14_p0	lambda_cid14_p1	lambda_cid14_p2	lambda_cid14_p3	lambda_cid14_p4	lambda_cid14_p5	/jointset/ground_pelvis/pelvis_tilt/accel	/jointset/ground_pelvis/pelvis_tx/accel	/jointset/ground_pelvis/pelvis_ty/accel	/jointset/hip_r/hip_flexion_r/accel	/jointset/hip_r/hip_adduction_r/accel	/jointset/hip_r/hip_rotation_r/accel	/jointset/back/lumbar_extension/accel	/jointset/patellofemoral_r/patellar_flexion_r/accel	/jointset/knee_r/knee_flexion_r/accel	/jointset/knee_r/knee_adduction_r/accel	/jointset/knee_r/knee_rotation_r/accel	/jointset/ankle_r/ankle_angle_r/accel	/jointset/subtalar_r/subtalar_angle_r/accel	gamma_cid13_p0	gamma_cid14_p0	gamma_cid14_p1	gamma_cid14_p2	gamma_cid14_p3	gamma_cid14_p4	gamma_cid14_p5
1	-0.221902381666941	-0.01132316811742103	0.6361529420313409	1.414841044378432	-0.2468343745037031	0.03338058020818454	-0.7853944171460741	1.521893307494883	1.521893307494888	-0.04159534560600113	0.1745218499563028	0.4363053592998345	0.1567361585217292	0.06953652401971253	0.003975275694759478	0.01808053064253709	-0.1055714661722451	-0.001109855525030158	-0.009458377067855359	-0.0003535910076664971	-0.02757582135741815	-0.02757582135741665	-2.589406745833462e-06	-1.939273881275067e-05	0.00786656071813987	0.001942437763131796	-0.324314949432684	0.02014087686581409	0.02863884036609406	-0.4756625659284411	-0.01144365410705255	-0.007146233797895268	0.3522300216230763	-0.04049558727859347	-55.86292559141883	-15.50189562273528	5.882709029386685	6.816229957967549	-766.8060415270782	70.28810336096494	1.226719640747238	0.1534536276224941	1.784931820000245	-5.333245675965581	0.03042814085218079	-1.36732083089483	-0.04572962541194348	-4.942859264966269	-4.942859264966485	0.1500451090752277	0.01126426937603892	-1.045363560039311	-0.4132576835917791	6.158214355490378e-10	-2.150105443692213e-09	5.558952272927265e-11	4.73176078819018e-09	4.457226871149689e-09	-6.360888069041428e-09	-4.007446320788007e-09
1.01	-0.2211465704506892	-0.01127561215293299	0.6364229337436274	1.413519412401228	-0.2468437898468307	0.03321813759117424	-0.7853981590074816	1.521370387631513	1.521370387631517	-0.04158758987606927	0.1745217472253748	0.4363318942572963	0.1567352756880366	0.08160123145885313	0.005552110301080835	0.03592431704434694	-0.158767727156449	-0.0007726214209445723	-0.02302693952999156	-0.0002606552599462549	-0.07703400712494833	-0.0770340071249408	0.001563707234779886	-3.079631955548637e-06	-0.002548608384210727	-0.002112448423756512	-0.3249260596089333	0.02023854985584073	0.02866469200362984	-0.4758679090938784	-0.01154620140850142	-0.007150525052687615	0.3531327829785423	-0.04049851525238614	-55.93885313562733	-15.52045521290889	5.889553295731781	6.655852366799126	-767.5763434763635	70.30051443520017	1.192673571951843	0.1622290559495586	1.785075370500889	-5.314735889357308	0.0354616522362544	-1.351143596099268	0.05692408040500191	-4.951176907426118	-4.951176907425158	0.1614188225557429	-0.003471931686975283	-1.037950498391217	-0.400618018851317	1.508586307528292e-09	-4.011354044967899e-09	9.944268663498173e-09	8.043314299000455e-09	8.529013328932673e-09	-1.226149251307505e-08	9.540388885439459e-09
1.02	-0.2202708467047546	-0.01121180170661955	0.6368715579839779	1.411665433898244	-0.2468498147275106	0.03292010542110648	-0.7853969477305173	1.520352110175512	1.520352110175512	-0.04156387180356067	0.1745217502729114	0.4362546061410857	0.1566940412059514	0.09351902995616967	0.007226172059839723	0.0538070362553499	-0.2120407713290374	-0.0004317630348785725	-0.03657628768117988	0.0006370367094171433	-0.1266473398836681	-0.1266473398836545	0.003189879110887227	1.762953800752044e-06	-0.01289805400889259	-0.006127891915203524	-0.3255371697851663	0.02033622284586963	0.02869054364118658	-0.4760732522593117	-0.01164874870995013	-0.007154816307476118	0.354035544334025	-0.04050752646519432	-56.02237846928685	-15.53850164157081	5.894210076331353	6.502031330348953	-768.4757190774869	70.31421191540365	1.197337852382397	0.1728990581100174	1.79271838183887	-5.348602313642505	0.03115299724825709	-1.363477968705258	0.1152216189167747	-4.973888663204197	-4.973888663204395	0.1620201559915551	0.008970165155865819	-1.032218864505535	-0.4053691445035169	1.703361679938239e-09	-2.852648181511048e-09	2.109315517434313e-08	1.128979947975306e-08	5.284017530408941e-09	-1.442457521046186e-08	2.168623754422e-08
1.03	-0.2192767212439934	-0.01113080072277223	0.6374990918164659	1.409278674841234	-0.2468523860250149	0.03248675004227056	-0.7853821787031279	1.518837067014166	1.518837067014165	-0.04152359550147148	0.1745217633588818	0.4360740107320601	0.1566128406846018	0.1052770160516468	0.008986776118469363	0.07169507734040152	-0.2652905518340234	-7.981327804134531e-05	-0.05008493836632865	0.002507487872482805	-0.1763732156305649	-0.1763732156305567	0.004875333996642086	2.28721762058983e-06	-0.02322426681877372	-0.01010769814797737	-0.3266165472551879	0.02054240422030849	0.02865605993044924	-0.4752014406258532	-0.01298627415078605	-0.007010102148601633	0.355303496064285	-0.0405277255031623	-56.47932588711662	-15.52331656333313	5.854844633702074	6.696822356020353	-769.152472888669	70.27582386701798	1.160672523631304	0.1795541637880832	1.786145713775566	-5.310092561348615	0.03762135263984759	-1.343083275915979	0.2515647297218053	-4.973725896564956	-4.973725896565687	0.1733041735403123	-0.004186600148717173	-1.033309826262789	-0.3936022909955288	1.891014710515842e-09	-1.663126456169155e-09	3.225490094406642e-08	1.453562069795407e-08	1.964360688453466e-09	-1.654951993084205e-08	3.38177802178225e-08
